<mxfile host="app.diagrams.net" modified="2023-09-10T14:07:26.134Z" agent="Mozilla/5.0 (X11; Ubuntu; Linux x86_64; rv:109.0) Gecko/20100101 Firefox/117.0" etag="pM_G9AykvWWPkiwhl2Mj" version="21.7.4" type="github">
  <diagram name="Страница — 1" id="4DeSzQlvL0Lo9f5464Tc">
    <mxGraphModel dx="1364" dy="795" grid="1" gridSize="10" guides="1" tooltips="1" connect="1" arrows="1" fold="1" page="1" pageScale="1" pageWidth="827" pageHeight="1169" math="0" shadow="0">
      <root>
        <mxCell id="0" />
        <mxCell id="1" parent="0" />
      </root>
    </mxGraphModel>
  </diagram>
</mxfile>
